<svg width="80" height="80" viewBox="0 0 80 80" fill="none" xmlns="http://www.w3.org/2000/svg">
<path d="M80 0H0V80H80V0Z" fill="#FF4400"/>
<path d="M27.2 21.3C27.9426 21.3 28.6548 21.7214 29.1799 22.4716C29.705 23.2217 30 24.2391 30 25.3V33.3H24.4V25.3C24.4 24.2391 24.695 23.2217 25.2201 22.4716C25.7452 21.7214 26.4574 21.3 27.2 21.3Z" fill="white"/>
<path d="M24.8 34.7424H29.6C30.0243 34.7424 30.4313 34.911 30.7313 35.211C31.0314 35.5111 31.2 35.9181 31.2 36.3424V55.5424H23.2V36.3424C23.2 35.9181 23.3685 35.5111 23.6686 35.211C23.9686 34.911 24.3756 34.7424 24.8 34.7424Z" fill="white"/>
<path d="M31.2 56.3H23.2V58.7H31.2V56.3Z" fill="white"/>
<path d="M30 34.0328H24.4V34.8328H30V34.0328Z" fill="white"/>
<path d="M52.8 21.3C53.5426 21.3 54.2548 21.7214 54.7799 22.4716C55.305 23.2217 55.6 24.2391 55.6 25.3V33.3H50V25.3C50 24.2391 50.295 23.2217 50.8201 22.4716C51.3452 21.7214 52.0574 21.3 52.8 21.3Z" fill="white"/>
<path d="M50.4 34.7424H55.2C55.6244 34.7424 56.0314 34.911 56.3314 35.211C56.6315 35.5111 56.8 35.9181 56.8 36.3424V55.5424H48.8V36.3424C48.8 35.9181 48.9686 35.5111 49.2687 35.211C49.5687 34.911 49.9757 34.7424 50.4 34.7424Z" fill="white"/>
<path d="M56.8 56.3H48.8V58.7H56.8V56.3Z" fill="white"/>
<path d="M55.6 34.0328H50V34.8328H55.6V34.0328Z" fill="white"/>
<path d="M40 21.3C40.7426 21.3 41.4547 21.7214 41.9798 22.4716C42.505 23.2217 42.8 24.2391 42.8 25.3V33.3H37.2V25.3C37.2 24.2391 37.495 23.2217 38.0201 22.4716C38.5452 21.7214 39.2573 21.3 40 21.3Z" fill="white"/>
<path d="M37.6 34.7424H42.4C42.8243 34.7424 43.2313 34.911 43.5314 35.211C43.8314 35.5111 44 35.9181 44 36.3424V55.5424H36V36.3424C36 35.9181 36.1686 35.5111 36.4686 35.211C36.7687 34.911 37.1757 34.7424 37.6 34.7424Z" fill="white"/>
<path d="M44 56.3H36V58.7H44V56.3Z" fill="white"/>
<path d="M42.8 34.0328H37.2V34.8328H42.8V34.0328Z" fill="white"/>
</svg>
