<svg width="80" height="80" viewBox="0 0 80 80" fill="none" xmlns="http://www.w3.org/2000/svg">
<g clip-path="url(#clip0_1_13)">
<path d="M80 0H0V80H80V0Z" fill="#FF9601"/>
<path d="M33.6 21.3C34.3426 21.3 35.0548 21.7214 35.5799 22.4716C36.105 23.2217 36.4 24.2391 36.4 25.3V33.3H30.8V25.3C30.8 24.2391 31.095 23.2217 31.6201 22.4716C32.1452 21.7214 32.8574 21.3 33.6 21.3Z" fill="white"/>
<path d="M31.2 34.7424H36C36.4243 34.7424 36.8313 34.911 37.1313 35.211C37.4314 35.5111 37.6 35.9181 37.6 36.3424V55.5424H29.6V36.3424C29.6 35.9181 29.7685 35.5111 30.0686 35.211C30.3687 34.911 30.7756 34.7424 31.2 34.7424Z" fill="white"/>
<path d="M37.6 56.3H29.6V58.7H37.6V56.3Z" fill="white"/>
<path d="M36.4 34.0328H30.8V34.8328H36.4V34.0328Z" fill="white"/>
<path d="M46.4 21.3C47.1426 21.3 47.8548 21.7214 48.3799 22.4716C48.905 23.2217 49.2 24.2391 49.2 25.3V33.3H43.6V25.3C43.6 24.2391 43.895 23.2217 44.4201 22.4716C44.9452 21.7214 45.6574 21.3 46.4 21.3Z" fill="white"/>
<path d="M44 34.7424H48.8C49.2244 34.7424 49.6313 34.911 49.9314 35.211C50.2315 35.5111 50.4 35.9181 50.4 36.3424V55.5424H42.4V36.3424C42.4 35.9181 42.5686 35.5111 42.8687 35.211C43.1687 34.911 43.5757 34.7424 44 34.7424Z" fill="white"/>
<path d="M50.4 56.3H42.4V58.7H50.4V56.3Z" fill="white"/>
<path d="M49.2 34.0328H43.6V34.8328H49.2V34.0328Z" fill="white"/>
</g>
<defs>
<clipPath id="clip0_1_13">
<rect width="80" height="80" fill="white"/>
</clipPath>
</defs>
</svg>
