<?xml version="1.0" encoding="utf-8"?>
<svg viewBox="0 0 100 100" style="" xmlns="http://www.w3.org/2000/svg">
  <rect width="100" height="100" style="stroke-width: 0px; fill: rgb(255, 150, 1);" transform="matrix(0.9999999999999999, 0, 0, 0.9999999999999999, 0, 0)"/>
  <path style="stroke-width: 0px; fill: rgb(255, 255, 255);" d="M 42 26.625 H 42 A 3.5 5 0 0 1 45.5 31.625 V 41.625 H 38.5 V 31.625 A 3.5 5 0 0 1 42 26.625 Z" transform="matrix(0.9999999999999999, 0, 0, 0.9999999999999999, 0, 0)"/>
  <path style="stroke-width: 0px; fill: rgb(255, 255, 255);" d="M 39 43.428 H 45 A 2 2 0 0 1 47 45.428 V 69.428 H 37 V 45.428 A 2 2 0 0 1 39 43.428 Z" transform="matrix(0.9999999999999999, 0, 0, 0.9999999999999999, 0, 0)"/>
  <rect style="stroke-width: 0px; fill: rgb(255, 255, 255);" x="37" y="70.375" width="10" height="3" transform="matrix(0.9999999999999999, 0, 0, 0.9999999999999999, 0, 0)"/>
  <rect x="38.5" y="42.541" width="7" height="1" style="fill: rgb(255, 255, 255);" transform="matrix(0.9999999999999999, 0, 0, 0.9999999999999999, 0, 0)"/>
  <path style="stroke-width: 0px; fill: rgb(255, 255, 255);" d="M 58 26.625 H 58 A 3.5 5 0 0 1 61.5 31.625 V 41.625 H 54.5 V 31.625 A 3.5 5 0 0 1 58 26.625 Z" transform="matrix(0.9999999999999999, 0, 0, 0.9999999999999999, 0, 0)"/>
  <path style="stroke-width: 0px; fill: rgb(255, 255, 255);" d="M 55 43.428 H 61 A 2 2 0 0 1 63 45.428 V 69.428 H 53 V 45.428 A 2 2 0 0 1 55 43.428 Z" transform="matrix(0.9999999999999999, 0, 0, 0.9999999999999999, 0, 0)"/>
  <rect style="stroke-width: 0px; fill: rgb(255, 255, 255);" x="53" y="70.375" width="10" height="3" transform="matrix(0.9999999999999999, 0, 0, 0.9999999999999999, 0, 0)"/>
  <rect x="54.5" y="42.541" width="7" height="1" style="fill: rgb(255, 255, 255);" transform="matrix(0.9999999999999999, 0, 0, 0.9999999999999999, 0, 0)"/>
</svg>