<svg width="80" height="80" viewBox="0 0 80 80" fill="none" xmlns="http://www.w3.org/2000/svg">
<g clip-path="url(#clip0_1_7)">
<path d="M80 0H0V80H80V0Z" fill="#1F262C"/>
<path d="M40 21.3C40.7426 21.3 41.4548 21.7214 41.9799 22.4716C42.505 23.2217 42.8 24.2391 42.8 25.3V33.3H37.2V25.3C37.2 24.2391 37.495 23.2217 38.0201 22.4716C38.5452 21.7214 39.2574 21.3 40 21.3Z" fill="#4CBF74"/>
<path d="M37.6 34.7424H42.4C42.8243 34.7424 43.2313 34.911 43.5314 35.2111C43.8314 35.5111 44 35.9181 44 36.3424V55.5424H36V36.3424C36 35.9181 36.1686 35.5111 36.4686 35.2111C36.7687 34.911 37.1757 34.7424 37.6 34.7424Z" fill="#4CBF74"/>
<path d="M44 56.3H36V58.7H44V56.3Z" fill="#4CBF74"/>
<path d="M42.8 34.0328H37.2V34.8328H42.8V34.0328Z" fill="#4CBF74"/>
</g>
<defs>
<clipPath id="clip0_1_7">
<rect width="80" height="80" fill="white"/>
</clipPath>
</defs>
</svg>
