<?xml version="1.0" encoding="utf-8"?>
<svg viewBox="0 0 100 100" style="" xmlns="http://www.w3.org/2000/svg">
  <rect width="100" height="100" style="stroke-width: 0px; fill: rgb(255, 68, 0);" transform="matrix(1, 0, 0, 1, 2.842170943040401e-14, 7.105427357601002e-15)"/>
  <path style="stroke-width: 0px; fill: rgb(255, 255, 255);" d="M 34 26.625 H 34 A 3.5 5 0 0 1 37.5 31.625 V 41.625 H 30.5 V 31.625 A 3.5 5 0 0 1 34 26.625 Z" transform="matrix(1, 0, 0, 1, 2.842170943040401e-14, 7.105427357601002e-15)"/>
  <path style="stroke-width: 0px; fill: rgb(255, 255, 255);" d="M 31 43.428 H 37 A 2 2 0 0 1 39 45.428 V 69.428 H 29 V 45.428 A 2 2 0 0 1 31 43.428 Z" transform="matrix(1, 0, 0, 1, 2.842170943040401e-14, 7.105427357601002e-15)"/>
  <rect style="stroke-width: 0px; fill: rgb(255, 255, 255);" x="29" y="70.375" width="10" height="3" transform="matrix(1, 0, 0, 1, 2.842170943040401e-14, 7.105427357601002e-15)"/>
  <rect x="30.5" y="42.541" width="7" height="1" style="fill: rgb(255, 255, 255);" transform="matrix(1, 0, 0, 1, 2.842170943040401e-14, 7.105427357601002e-15)"/>
  <path style="stroke-width: 0px; fill: rgb(255, 255, 255);" d="M 66 26.625 H 66 A 3.5 5 0 0 1 69.5 31.625 V 41.625 H 62.5 V 31.625 A 3.5 5 0 0 1 66 26.625 Z" transform="matrix(1, 0, 0, 1, 2.842170943040401e-14, 7.105427357601002e-15)"/>
  <path style="stroke-width: 0px; fill: rgb(255, 255, 255);" d="M 63 43.428 H 69 A 2 2 0 0 1 71 45.428 V 69.428 H 61 V 45.428 A 2 2 0 0 1 63 43.428 Z" transform="matrix(1, 0, 0, 1, 2.842170943040401e-14, 7.105427357601002e-15)"/>
  <rect style="stroke-width: 0px; fill: rgb(255, 255, 255);" x="61" y="70.375" width="10" height="3" transform="matrix(1, 0, 0, 1, 2.842170943040401e-14, 7.105427357601002e-15)"/>
  <rect x="62.5" y="42.541" width="7" height="1" style="fill: rgb(255, 255, 255);" transform="matrix(1, 0, 0, 1, 2.842170943040401e-14, 7.105427357601002e-15)"/>
  <path style="stroke-width: 0px; fill: rgb(255, 255, 255);" d="M 50 26.625 H 50 A 3.5 5 0 0 1 53.5 31.625 V 41.625 H 46.5 V 31.625 A 3.5 5 0 0 1 50 26.625 Z" transform="matrix(1, 0, 0, 1, 2.842170943040401e-14, 7.105427357601002e-15)"/>
  <path style="stroke-width: 0px; fill: rgb(255, 255, 255);" d="M 47 43.428 H 53 A 2 2 0 0 1 55 45.428 V 69.428 H 45 V 45.428 A 2 2 0 0 1 47 43.428 Z" transform="matrix(1, 0, 0, 1, 2.842170943040401e-14, 7.105427357601002e-15)"/>
  <rect style="stroke-width: 0px; fill: rgb(255, 255, 255);" x="45" y="70.375" width="10" height="3" transform="matrix(1, 0, 0, 1, 2.842170943040401e-14, 7.105427357601002e-15)"/>
  <rect x="46.5" y="42.541" width="7" height="1" style="fill: rgb(255, 255, 255);" transform="matrix(1, 0, 0, 1, 2.842170943040401e-14, 7.105427357601002e-15)"/>
</svg>