<?xml version="1.0" encoding="UTF-8" standalone="no"?>
<!-- Created with Inkscape (http://www.inkscape.org/) -->

<svg
   width="64pt"
   height="64pt"
   viewBox="0 0 22.577778 22.577778"
   version="1.1"
   id="svg831"
   inkscape:version="1.1.1 (3bf5ae0d25, 2021-09-20)"
   sodipodi:docname="Export - Unblash - 64px.svg"
   inkscape:export-filename="C:\Users\User\Desktop\CARLOS PROJECT\3. MARET 1\EXPORT\FLAT\6 - Archive.png"
   inkscape:export-xdpi="576"
   inkscape:export-ydpi="576"
   xmlns:inkscape="http://www.inkscape.org/namespaces/inkscape"
   xmlns:sodipodi="http://sodipodi.sourceforge.net/DTD/sodipodi-0.dtd"
   xmlns="http://www.w3.org/2000/svg"
   xmlns:svg="http://www.w3.org/2000/svg"
   xmlns:rdf="http://www.w3.org/1999/02/22-rdf-syntax-ns#"
   xmlns:cc="http://creativecommons.org/ns#"
   xmlns:dc="http://purl.org/dc/elements/1.1/">
  <defs
     id="defs825">
    <pattern
       id="EMFhbasepattern"
       patternUnits="userSpaceOnUse"
       width="6"
       height="6"
       x="0"
       y="0" />
    <pattern
       id="EMFhbasepattern-9"
       patternUnits="userSpaceOnUse"
       width="6"
       height="6"
       x="0"
       y="0" />
    <pattern
       id="EMFhbasepattern-0"
       patternUnits="userSpaceOnUse"
       width="6"
       height="6"
       x="0"
       y="0" />
    <pattern
       id="EMFhbasepattern-7"
       patternUnits="userSpaceOnUse"
       width="6"
       height="6"
       x="0"
       y="0" />
    <pattern
       id="EMFhbasepattern-2"
       patternUnits="userSpaceOnUse"
       width="6"
       height="6"
       x="0"
       y="0" />
    <pattern
       id="EMFhbasepattern-98"
       patternUnits="userSpaceOnUse"
       width="6"
       height="6"
       x="0"
       y="0" />
    <pattern
       id="EMFhbasepattern-6"
       patternUnits="userSpaceOnUse"
       width="6"
       height="6"
       x="0"
       y="0" />
    <pattern
       id="EMFhbasepattern-01"
       patternUnits="userSpaceOnUse"
       width="6"
       height="6"
       x="0"
       y="0" />
    <pattern
       id="EMFhbasepattern-07"
       patternUnits="userSpaceOnUse"
       width="6"
       height="6"
       x="0"
       y="0" />
    <pattern
       id="EMFhbasepattern-8"
       patternUnits="userSpaceOnUse"
       width="6"
       height="6"
       x="0"
       y="0" />
    <pattern
       id="EMFhbasepattern-4"
       patternUnits="userSpaceOnUse"
       width="6"
       height="6"
       x="0"
       y="0" />
    <pattern
       id="EMFhbasepattern-40"
       patternUnits="userSpaceOnUse"
       width="6"
       height="6"
       x="0"
       y="0" />
    <pattern
       id="EMFhbasepattern-08"
       patternUnits="userSpaceOnUse"
       width="6"
       height="6"
       x="0"
       y="0" />
    <pattern
       id="EMFhbasepattern-04"
       patternUnits="userSpaceOnUse"
       width="6"
       height="6"
       x="0"
       y="0" />
    <pattern
       id="EMFhbasepattern-014"
       patternUnits="userSpaceOnUse"
       width="6"
       height="6"
       x="0"
       y="0" />
    <pattern
       id="EMFhbasepattern-27"
       patternUnits="userSpaceOnUse"
       width="6"
       height="6"
       x="0"
       y="0" />
    <pattern
       id="EMFhbasepattern-09"
       patternUnits="userSpaceOnUse"
       width="6"
       height="6"
       x="0"
       y="0" />
    <pattern
       id="EMFhbasepattern-5"
       patternUnits="userSpaceOnUse"
       width="6"
       height="6"
       x="0"
       y="0" />
    <pattern
       id="EMFhbasepattern-018"
       patternUnits="userSpaceOnUse"
       width="6"
       height="6"
       x="0"
       y="0" />
  </defs>
  <sodipodi:namedview
     id="base"
     pagecolor="#ffffff"
     bordercolor="#666666"
     borderopacity="1.0"
     inkscape:pageopacity="0.0"
     inkscape:pageshadow="2"
     inkscape:zoom="9.1757813"
     inkscape:cx="42.612175"
     inkscape:cy="42.666667"
     inkscape:document-units="pt"
     inkscape:current-layer="layer1"
     showgrid="false"
     units="pt"
     inkscape:window-width="1920"
     inkscape:window-height="1001"
     inkscape:window-x="-9"
     inkscape:window-y="41"
     inkscape:window-maximized="1"
     inkscape:pagecheckerboard="true"
     inkscape:showpageshadow="false"
     inkscape:object-paths="true"
     inkscape:snap-intersection-paths="true"
     inkscape:snap-smooth-nodes="true"
     inkscape:snap-midpoints="true"
     showguides="true"
     inkscape:snap-bbox="true"
     inkscape:bbox-nodes="true"
     inkscape:snap-nodes="false"
     inkscape:snap-global="true">
    <inkscape:grid
       type="xygrid"
       id="grid1378" />
    <sodipodi:guide
       position="0.97013831,21.607643"
       orientation="78.000048,0"
       id="guide1380"
       inkscape:locked="false" />
    <sodipodi:guide
       position="0.97013831,0.97013129"
       orientation="0,78.000005"
       id="guide1382"
       inkscape:locked="false" />
    <sodipodi:guide
       position="21.607639,0.97013129"
       orientation="-78.000048,0"
       id="guide1384"
       inkscape:locked="false" />
    <sodipodi:guide
       position="21.607639,21.607643"
       orientation="0,-78.000005"
       id="guide1386"
       inkscape:locked="false" />
  </sodipodi:namedview>
  <metadata
     id="metadata828">
    <rdf:RDF>
      <cc:Work
         rdf:about="">
        <dc:format>image/svg+xml</dc:format>
        <dc:type
           rdf:resource="http://purl.org/dc/dcmitype/StillImage" />
      </cc:Work>
    </rdf:RDF>
  </metadata>
  <g
     inkscape:label="Icon"
     inkscape:groupmode="layer"
     id="layer1"
     transform="translate(0,-274.42223)">
    <g
       id="g5796"
       style="display:inline;stroke-width:0.794897"
       transform="matrix(1.2580251,0,0,1.2580251,77.384508,-77.272122)">
      <path
         style="color:#000000;fill:#cccccc;fill-opacity:1;stroke-width:0.794897;stroke-linecap:round;stroke-linejoin:round;-inkscape-stroke:none"
         d="m -55.185547,280.86133 c -0.435245,0 -0.792972,0.35772 -0.792969,0.79297 v 1.05859 a 0.26460996,0.26460996 0 0 0 0.263672,0.26367 h 6.351563 a 0.26460996,0.26460996 0 0 0 0.263672,-0.26367 v -1.05859 c 3e-6,-0.43525 -0.357724,-0.79297 -0.792969,-0.79297 z"
         id="path389026" />
      <path
         id="path722659"
         style="color:#000000;fill:#bfbfbf;fill-opacity:1;stroke-width:3.00434;stroke-linecap:round;stroke-linejoin:round;-inkscape-stroke:none"
         d="M -211.40039,5.0078125 C -211.51109,5.3192097 -211.57227,5.6524597 -211.57227,6 v 4.001953 a 1.0001006,1.0001006 0 0 0 0.9961,0.996094 h 24.00586 a 1.0001006,1.0001006 0 0 0 0.99609,-0.996094 V 6 c 0,-0.3474878 -0.0592,-0.6808303 -0.16992,-0.9921875 z"
         transform="matrix(0.26458334,0,0,0.26458334,0,280.06666)" />
      <path
         style="color:#000000;fill:#d9d9d9;fill-opacity:1;stroke-width:0.794897;stroke-linecap:round;stroke-linejoin:round;-inkscape-stroke:none"
         d="m -56.244141,281.91797 c -0.435245,0 -0.79297,0.35968 -0.792968,0.79492 v 2.64453 a 0.26460996,0.26460996 0 0 0 0.28125,0.26563 l 8.466797,-0.5293 a 0.26460996,0.26460996 0 0 0 0.248046,-0.26367 v -2.11719 c 3e-6,-0.43524 -0.357723,-0.79492 -0.792968,-0.79492 z"
         id="path388834" />
      <path
         style="color:#000000;fill:#e59f2e;stroke-width:0.794897;stroke-linecap:round;stroke-linejoin:round;-inkscape-stroke:none"
         d="m -57.830078,286.68164 a 0.26460996,0.26460996 0 0 0 -0.199219,0.0898 l -1.853515,2.11719 a 0.26460996,0.26460996 0 0 0 -0.06445,0.17383 v 1.78711 a 0.26460996,0.26460996 0 0 0 0.265625,0.26562 l 14.28711,-0.0273 a 0.26460996,0.26460996 0 0 0 0.263672,-0.26367 v -1.76172 a 0.26460996,0.26460996 0 0 0 -0.06445,-0.17383 l -1.853516,-2.11719 a 0.26460996,0.26460996 0 0 0 -0.199219,-0.0898 z"
         id="path388510" />
      <path
         id="path711144"
         style="fill:#ca7d02;fill-opacity:1;stroke-width:3.00434;stroke-linecap:round;stroke-linejoin:round"
         d="m -218.57031,25.001953 a 1.0001006,1.0001006 0 0 0 -0.75391,0.339844 l -2.08008,2.376953 V 41.75 l 45.66407,-0.08789 V 27.720703 l -2.08204,-2.378906 a 1.0001006,1.0001006 0 0 0 -0.7539,-0.339844 z"
         transform="matrix(0.26458334,0,0,0.26458334,0,280.06666)" />
      <path
         id="path715855"
         style="fill:#cccccc;fill-opacity:1;stroke-width:3.00434;stroke-linecap:round;stroke-linejoin:round"
         d="m -215.39844,9 c -0.11252,0.3141966 -0.17578,0.6514348 -0.17578,1.001953 v 9.955078 a 1.0001006,1.0388399 0 0 0 0.0176,0.167969 1.0001006,1.0001006 0 0 0 0.0117,0.08594 1.0001006,1.0388399 0 0 0 0.0762,0.216796 1.0001006,1.0388399 0 0 0 0.12695,0.201172 1.0001006,1.0388399 0 0 0 0.004,0.0039 1.0001006,1.0388399 0 0 0 0.15625,0.152344 1.0001006,1.0001006 0 0 0 0.0371,0.02539 1.0001006,1.0388399 0 0 0 0.16211,0.09766 1.0001006,1.0001006 0 0 0 0.0879,0.03125 1.0001006,1.0388399 0 0 0 0.13672,0.04297 1.0001006,1.0001006 0 0 0 0.24804,0.01758 l 32,-2.078125 a 1.0001006,1.0388399 0 0 0 0.9375,-1.033203 v -2.6875 l -4.20117,-4.375 C -186.88946,9.6630601 -188.40368,9 -189.98828,9 Z"
         transform="matrix(0.26458334,0,0,0.26458334,0,280.06666)" />
      <path
         style="color:#000000;fill:#ececec;stroke-width:0.794897;stroke-linecap:round;stroke-linejoin:round;-inkscape-stroke:none"
         d="m -57.300781,282.97656 c -0.435245,0 -0.794925,0.35968 -0.794922,0.79492 v 7.40821 a 0.26460996,0.26460996 0 0 0 0.265625,0.26367 h 10.582031 a 0.26460996,0.26460996 0 0 0 0.265625,-0.26367 v -4.91016 c 3e-6,-0.30955 -0.123245,-0.60695 -0.341797,-0.82617 l -2.117187,-2.12305 c -0.218712,-0.21944 -0.516455,-0.34375 -0.826172,-0.34375 z"
         id="path37911" />
      <path
         style="color:#000000;display:inline;fill:#fcba4c;stroke-width:0.794897;stroke-linecap:round;stroke-linejoin:round;-inkscape-stroke:none"
         d="m -59.418946,288.79883 c -0.72749,0 -1.322265,0.59478 -1.322265,1.32227 v 4.76367 c 0,0.72749 0.594775,1.32226 1.322265,1.32226 h 13.759766 c 0.72749,0 1.322266,-0.59477 1.322266,-1.32226 v -4.76367 c 0,-0.72749 -0.594776,-1.32227 -1.322266,-1.32227 h -3.175781 c -1.131389,0 -0.502834,1.58789 -1.587892,1.58789 h -4.232422 c -1.062633,0 -0.928166,-1.58789 -1.587892,-1.58789 z"
         id="path4805"
         sodipodi:nodetypes="ssssssssccccs" />
      <path
         id="path388126"
         style="color:#000000;fill:#e59f2e;stroke-width:3.00434;stroke-linecap:round;stroke-linejoin:round;-inkscape-stroke:none"
         d="M -212.57617,46.003906 A 1.0000006,1.0000006 0 0 0 -213.57227,47 h -0.99804 c -1.64502,0 -3.00391,1.351092 -3.00391,2.996094 V 51 c 0,1.645002 1.35889,2.998047 3.00391,2.998047 h 0.99804 a 1.0000006,1.0000006 0 0 0 0.9961,1.003906 1.0000006,1.0000006 0 0 0 1.0039,-1.003906 h 25.99805 a 1.0000006,1.0000006 0 0 0 1.00391,1.003906 1.0000006,1.0000006 0 0 0 0.99804,-1.003906 h 0.9961 c 1.64501,0 3.0039,-1.353045 3.0039,-2.998047 v -1.003906 c 0,-1.645002 -1.35889,-2.996094 -3.0039,-2.996094 h -0.9961 A 1.0000006,1.0000006 0 0 0 -184.57031,46.003906 1.0000006,1.0000006 0 0 0 -185.57422,47 h -25.99805 a 1.0000006,1.0000006 0 0 0 -1.0039,-0.996094 z"
         transform="matrix(0.26458334,0,0,0.26458334,0,280.06666)" />
      <path
         id="path38103"
         style="color:#000000;fill:#bfbfbf;fill-opacity:1;stroke-width:3.00434;stroke-linecap:round;stroke-linejoin:round;-inkscape-stroke:none"
         d="m -189.57422,11.017578 v 10.980469 a 1.0001006,1.0001006 0 0 0 1.00391,1.003906 h 10.97656 c -0.10158,-1.008083 -0.54815,-1.956101 -1.26953,-2.679687 l -8.00195,-8.025391 c -0.72884,-0.731266 -1.68945,-1.182647 -2.70899,-1.279297 z"
         transform="matrix(0.26458334,0,0,0.26458334,0,280.06666)" />
      <path
         id="path6243"
         style="color:#000000;fill:#3a4d5c;stroke-width:3.00434;stroke-linecap:round;stroke-linejoin:round;-inkscape-stroke:none"
         d="M -214.57031,16.003906 A 1.0000006,1.0000006 0 0 0 -215.57422,17 a 1.0000006,1.0000006 0 0 0 1.00391,1.003906 h 11.99609 A 1.0000006,1.0000006 0 0 0 -201.57031,17 a 1.0000006,1.0000006 0 0 0 -1.00391,-0.996094 z m 15.99804,0 A 1.0000006,1.0000006 0 0 0 -199.57031,17 a 1.0000006,1.0000006 0 0 0 0.99804,1.003906 h 6 A 1.0000006,1.0000006 0 0 0 -191.57422,17 a 1.0000006,1.0000006 0 0 0 -0.99805,-0.996094 z m -15.99804,3.992188 A 1.0000006,1.0000006 0 0 0 -215.57422,21 a 1.0000006,1.0000006 0 0 0 1.00391,0.998047 h 5.99414 A 1.0000006,1.0000006 0 0 0 -207.57227,21 a 1.0000006,1.0000006 0 0 0 -1.0039,-1.003906 z m 9.99609,0 A 1.0000006,1.0000006 0 0 0 -205.57031,21 a 1.0000006,1.0000006 0 0 0 0.99609,0.998047 h 12.00195 A 1.0000006,1.0000006 0 0 0 -191.57422,21 a 1.0000006,1.0000006 0 0 0 -0.99805,-1.003906 z m -9.99609,5.005859 a 1.0000006,1.0000006 0 0 0 -1.00391,0.996094 1.0000006,1.0000006 0 0 0 1.00391,1.003906 h 15.99804 a 1.0000006,1.0000006 0 0 0 0.9961,-1.003906 1.0000006,1.0000006 0 0 0 -0.9961,-0.996094 z m 19.99804,0 a 1.0000006,1.0000006 0 0 0 -1.0039,0.996094 1.0000006,1.0000006 0 0 0 1.0039,1.003906 h 11 a 1.0000006,1.0000006 0 0 0 0.9961,-1.003906 1.0000006,1.0000006 0 0 0 -0.9961,-0.996094 z m -19.99804,4 A 1.0000006,1.0000006 0 0 0 -215.57422,30 a 1.0000006,1.0000006 0 0 0 1.00391,1.003906 h 7.99609 A 1.0000006,1.0000006 0 0 0 -205.57031,30 a 1.0000006,1.0000006 0 0 0 -1.00391,-0.998047 z m 11.99609,0 A 1.0000006,1.0000006 0 0 0 -203.57031,30 a 1.0000006,1.0000006 0 0 0 0.99609,1.003906 h 12.00391 A 1.0000006,1.0000006 0 0 0 -189.57422,30 a 1.0000006,1.0000006 0 0 0 -0.99609,-0.998047 z"
         transform="matrix(0.26458334,0,0,0.26458334,0,280.06666)" />
      <path
         id="path4621"
         style="color:#000000;display:inline;fill:#ca7d02;fill-opacity:1;stroke-width:0.794897;stroke-linecap:round;stroke-linejoin:round;-inkscape-stroke:none"
         d="m -59.419129,288.79786 c -0.727491,0 -1.322401,0.59492 -1.322401,1.32241 v 0.52917 c 0,-0.72749 0.59491,-1.3224 1.322401,-1.3224 h 3.176032 c 1.029273,0 0.836568,1.58805 1.587502,1.58805 h 4.232817 c 1.008687,0 0.644191,-1.58805 1.587495,-1.58805 h 3.176034 c 0.72749,0 1.3224,0.59491 1.3224,1.3224 v -0.52917 c 0,-0.72749 -0.59491,-1.32241 -1.3224,-1.32241 h -3.176034 c -1.096133,0 -0.71706,1.58806 -1.587495,1.58806 h -4.232817 c -0.69277,0 -0.327308,-1.58806 -1.587502,-1.58806 z"
         sodipodi:nodetypes="sscsccccscssccccs" />
    </g>
  </g>
</svg>
