<svg width="38" height="38" viewBox="0 0 38 38" fill="none" xmlns="http://www.w3.org/2000/svg">
<path d="M2 9C2 7.89543 2.84568 7 3.88889 7H34.1111C35.1543 7 36 7.89543 36 9C36 10.1046 35.1543 11 34.1111 11H3.88889C2.84569 11 2 10.1046 2 9Z" fill="#80C6D6"/>
<path d="M2 19C2 17.8954 2.84568 17 3.88889 17H34.1111C35.1543 17 36 17.8954 36 19C36 20.1046 35.1543 21 34.1111 21H3.88889C2.84569 21 2 20.1046 2 19Z" fill="#80C6D6"/>
<path d="M2 29C2 27.8954 2.84568 27 3.88889 27H34.1111C35.1543 27 36 27.8954 36 29C36 30.1046 35.1543 31 34.1111 31H3.88889C2.84569 31 2 30.1046 2 29Z" fill="#80C6D6"/>
</svg>
