<svg width="38" height="38" viewBox="0 0 38 38" fill="none" xmlns="http://www.w3.org/2000/svg">
<path d="M6.57198 31C5.80934 30.2502 5.80934 29.0345 6.57198 28.2847L28.6662 6.56236C29.4288 5.81255 30.6653 5.81255 31.428 6.56236C32.1906 7.31216 32.1906 8.52784 31.428 9.27765L9.33376 31C8.57111 31.7498 7.33463 31.7498 6.57198 31Z" fill="#80C6D6"/>
<path d="M6.57203 6.99998C7.33467 6.25017 8.57116 6.25017 9.33381 6.99998L31.428 28.7223C32.1907 29.4722 32.1907 30.6878 31.428 31.4376C30.6654 32.1875 29.4289 32.1875 28.6662 31.4376L6.57203 9.71528C5.80939 8.96547 5.80939 7.74979 6.57203 6.99998Z" fill="#80C6D6"/>
</svg>
